***************************************************************
 
http://www.torrentforce.org/imghost/3/greyshadow_tfbanner.png

***************************************************************
 
http://www.torrentforce.org/imghost/4/greyshadow_husk.jpg

***************************************************************

FILM TITLE: Husk (2011)

***************************************************************

Genre:  Drama | Horror | Thriller   

Release: 21st March 2011you

Country: USA

Language: English

Plot:
A group of friends stranded near a desolate cornfield find shelter 
in an old farmhouse, though they soon discover the dwelling is the 
center of a supernatural ritual.

IMDB Rating: 5/10 (2,041 votes)
 
http://www.imdb.com/title/tt1504403/ 

****************************************************************
 
http://www.imdb.com/rg/VIDEO_PLAY/LINK//video/screenplay/vi2472450585/ 

****************************************************************
 
http://www.torrentforce.org/imghost/4/greyshadow_Husk2011720pBRRipx264(mkv)[TFRG].jpg 
http://www.torrentforce.org/imghost/4/greyshadow_Husk2011720pBRRipx264(mkv)[TFRG]w4cem24nw.jpg 
http://www.torrentforce.org/imghost/4/greyshadow_Husk2011720pBRRipx264(mkv)[TFRG]qzeojq0tit.jpg 
http://www.torrentforce.org/imghost/4/greyshadow_Husk2011720pBRRipx264(mkv)[TFRG]52mgci42wi.jpg

****************************************************************

[IMG]http://www.torrentforce.org/imghost/2/greyshadow_mediainfo.png[/IMG]
General
Complete name                    : Husk 2011 720p BRRip x264 (mkv) [TFRG].mkv
Format                           : Matroska
Format version                   : Version 2
File size                        : 2.18 GiB
Duration                         : 1h 23mn
Overall bit rate                 : 3749 Kbps
Encoded date                     : UTC 2011-09-18 22:15:31
Writing application              : mkvmerge v4.9.1 ('Ich will') built on Jul 11 2011 23:53:15
Writing library                  : libebml v1.2.1 + libmatroska v1.1.1

Video
ID                               : 1
Format                           : AVC
Format/Info                      : Advanced Video Codec
Format profile                   : High@L4.1
Format settings, CABAC           : Yes
Format settings, ReFrames        : 9 frames
Codec ID                         : V_MPEG4/ISO/AVC
Duration                         : 1h 23mn
Bit rate                         : 3300 Kbps
Width                            : 1280 pixels
Height                           : 720 pixels
Display aspect ratio             : 16:9
Frame rate                       : 23.976 fps
Color space                      : YUV
Chroma subsampling               : 4:2:0
Bit depth                        : 8 bits
Scan type                        : Progressive
Bits/(Pixel*Frame)               : 0.149
Stream size                      : 1.87 GiB (86%)
Title                            : AVC MPEG4 Video
Writing library                  : x264 core 116 r2074 2641b9e
Language                         : English
Color primaries                  : BT.709-5, BT.1361, IEC 61966-2-4, SMPTE RP177
Transfer characteristics         : BT.709-5, BT.1361
Matrix coefficients              : BT.709-5, BT.1361, IEC 61966-2-4 709, SMPTE RP177

Audio
ID                               : 2
Format                           : AC-3
Format/Info                      : Audio Coding 3
Mode extension                   : CM (complete main)
Codec ID                         : A_AC3
Duration                         : 1h 23mn
Bit rate mode                    : Constant
Bit rate                         : 448 Kbps
Channel(s)                       : 6 channels
Channel positions                : Front: L C R, Side: L R, LFE
Sampling rate                    : 48.0 KHz
Bit depth                        : 16 bits
Compression mode                 : Lossy
Stream size                      : 266 MiB (12%)
Title                            : AC3 5.1 Audio
Language                         : English

****************************************************************

Video Source: Husk 2011 1080p GER Blu-ray AVC DTS-HD MA5.1 (22.05GB)

Thanks: davie1888 (hd-torrents.org)

****************************************************************

I provide a small sample, so please download this to check your 
compatibility first if you are unsure.

****************************************************************

A big thanks to all the sites out there who care and share and
who make it possible for you to download this torrent for free.

Greetz to Ripwyn, mustang, noir, Blackjesus and all the other 
outstanding members of our community of file sharers, and a 
special mention to our friends at 1337x.  

****************************************************************